<?xml version="1.0" standalone="no"?>
<!DOCTYPE svg PUBLIC "-//W3C//DTD SVG 20010904//EN"
 "http://www.w3.org/TR/2001/REC-SVG-20010904/DTD/svg10.dtd">
<svg version="1.0" xmlns="http://www.w3.org/2000/svg"
 width="64.000000pt" height="64.000000pt" viewBox="0 0 64.000000 64.000000"
 preserveAspectRatio="xMidYMid meet">

<g transform="translate(0.000000,64.000000) scale(0.100000,-0.100000)"
fill="#000000" stroke="none">
<path d="M296 618 c-110 -64 -106 -222 7 -279 103 -53 227 24 227 141 0 119
-132 197 -234 138z"/>
<path d="M87 443 c-4 -3 -7 -21 -7 -39 0 -31 -2 -33 -37 -36 -30 -2 -38 -7
-38 -23 0 -16 8 -21 37 -23 35 -3 37 -5 40 -40 2 -29 7 -37 23 -37 16 0 21 8
23 37 3 35 5 37 40 40 29 2 38 8 40 25 3 19 -2 22 -35 25 -36 3 -38 5 -41 41
-2 28 -8 37 -21 37 -10 0 -21 -3 -24 -7z"/>
<path d="M248 260 c-92 -28 -141 -99 -136 -197 l3 -58 260 0 260 0 3 49 c6 96
-51 182 -135 205 -44 13 -215 13 -255 1z"/>
</g>
</svg>
