<?xml version="1.0" encoding="UTF-8"?>
<svg width="16px" height="16px" viewBox="0 0 16 16" version="1.1" xmlns="http://www.w3.org/2000/svg" xmlns:xlink="http://www.w3.org/1999/xlink">
    <g id="Icons" stroke="none" stroke-width="1" fill="none" fill-rule="evenodd">
        <g id="Rounded" transform="translate(-580,-3436)">
            <g id="Navigation" transform="translate(100,3378)">
                <g id="-Round-/-Navigation-/-arrow_back" transform="translate(476,54)">
                    <g transform="translate(0)">
                        <polygon id="Path" points="0,0 24,0 24,24 0,24"></polygon>
                        <path d="M 19 11 L 7.8 11 L 12.7 6.1 C 13.1 5.7 13.1 5.1 12.7 4.7 C 12.3 4.3 11.7 4.3 11.3 4.7 L 4.7 11.3 C 4.3 11.7 4.3 12.3 4.7 12.7 L 11.3 19.3 C 11.7 19.7 12.3 19.7 12.7 19.3 C 13.1 18.9 13.1 18.3 12.7 17.9 L 7.8 13 L 19 13 C 19.6 13 20 12.6 20 12 C 20 11.4 19.6 11 19 11 Z" id="🔹-Icon-Color" fill="#bfc1c3"></path>
                    </g>
                </g>
            </g>
        </g>
    </g>
</svg>