<?xml version="1.0" standalone="no"?>
<!DOCTYPE svg PUBLIC "-//W3C//DTD SVG 20010904//EN"
 "http://www.w3.org/TR/2001/REC-SVG-20010904/DTD/svg10.dtd">
<svg version="1.0" xmlns="http://www.w3.org/2000/svg"
 width="64.000000pt" height="64.000000pt" viewBox="0 0 64.000000 64.000000"
 preserveAspectRatio="xMidYMid meet">

<g transform="translate(0.000000,64.000000) scale(0.100000,-0.100000)"
fill="#000000" stroke="none">
<path d="M223 622 c-107 -38 -177 -111 -208 -216 -21 -68 -19 -125 6 -191 30
-82 75 -133 149 -174 59 -32 72 -36 145 -36 66 0 90 5 136 26 149 70 225 245
169 392 -33 88 -76 137 -154 177 -84 43 -164 50 -243 22z m183 -18 c27 -8 58
-22 68 -30 19 -13 19 -14 1 -34 -24 -26 -27 -25 -47 9 -31 55 -149 65 -205 17
-22 -19 -26 -34 -35 -113 -9 -83 -8 -94 11 -130 l20 -40 -69 -68 c-67 -66 -70
-68 -84 -50 -8 11 -22 42 -30 69 -72 221 149 442 370 370z m-13 -46 c10 -5 22
-21 28 -35 9 -25 4 -33 -87 -124 l-98 -98 -18 30 c-17 27 -18 40 -9 116 5 51
15 91 24 100 29 30 113 35 160 11z m142 -40 c0 -9 -94 -107 -208 -218 -159
-155 -211 -200 -220 -191 -9 9 38 61 198 221 116 116 214 209 220 207 5 -2 10
-11 10 -19z m56 -75 c34 -70 33 -179 -4 -248 -43 -81 -40 -79 -79 -53 -20 13
-50 31 -67 40 -39 22 -41 54 -6 126 14 29 25 60 25 69 0 16 86 113 101 113 4
0 17 -21 30 -47z m-183 -142 c-42 -79 -35 -102 47 -152 32 -19 60 -40 62 -45
5 -16 -80 -63 -136 -75 -29 -6 -73 -8 -99 -4 -46 7 -132 42 -132 53 0 9 283
292 287 288 2 -2 -11 -31 -29 -65z"/>
</g>
</svg>
