<svg fill="#000000" xmlns="http://www.w3.org/2000/svg"  viewBox="0 0 64 64" width="64px" height="64px"><path d="M 32 6 C 17.641 6 6 17.641 6 32 C 6 46.359 17.641 58 32 58 C 46.359 58 58 46.359 58 32 C 58 17.641 46.359 6 32 6 z M 32 10 C 37.331151 10 42.225311 11.905908 46.037109 15.072266 L 14.505859 45.318359 C 11.682276 41.618415 10 37.00303 10 32 C 10 19.869 19.869 10 32 10 z M 48.927734 17.962891 C 52.094092 21.774689 54 26.668849 54 32 C 54 44.131 44.131 54 32 54 C 26.99697 54 22.381585 52.317724 18.681641 49.494141 L 48.927734 17.962891 z"/></svg>