<?xml version="1.0" standalone="no"?>
<!DOCTYPE svg PUBLIC "-//W3C//DTD SVG 20010904//EN"
 "http://www.w3.org/TR/2001/REC-SVG-20010904/DTD/svg10.dtd">
<svg version="1.0" xmlns="http://www.w3.org/2000/svg"
 width="512.000000pt" height="512.000000pt" viewBox="0 0 512.000000 512.000000"
 preserveAspectRatio="xMidYMid meet">

<g transform="translate(0.000000,512.000000) scale(0.100000,-0.100000)"
fill="#BFC1C3" stroke="none">
<path d="M2055 4146 c-75 -24 -100 -45 -324 -270 l-225 -225 -385 -3 -386 -3
-56 -26 c-76 -36 -133 -89 -166 -157 l-28 -57 0 -1095 0 -1095 26 -55 c37 -80
81 -125 157 -162 l67 -33 1825 0 1825 0 56 26 c72 34 134 96 168 168 l26 56 0
1095 0 1095 -23 46 c-37 75 -87 125 -160 161 l-67 33 -378 3 -379 3 -222 224
c-188 191 -230 229 -281 252 l-60 28 -485 2 c-372 2 -494 -1 -525 -11z m2262
-772 c54 -34 76 -113 50 -177 -44 -104 -204 -103 -252 2 -56 125 88 249 202
175z m-1537 -85 c341 -81 614 -367 685 -718 23 -114 16 -325 -14 -426 -50
-166 -147 -323 -269 -435 -174 -160 -381 -240 -622 -240 -241 0 -448 80 -622
240 -122 112 -219 269 -269 435 -30 101 -37 312 -14 426 35 176 117 331 244
462 156 162 329 247 576 281 59 8 223 -5 305 -25z"/>
<path d="M2415 3076 c-254 -58 -448 -241 -526 -496 -19 -59 -23 -98 -23 -185
0 -132 17 -206 76 -325 33 -68 58 -102 127 -170 144 -143 291 -205 491 -205
200 0 347 62 490 205 95 94 155 198 187 320 26 99 23 265 -6 360 -69 226 -238
403 -452 474 -102 34 -267 44 -364 22z"/>
</g>
</svg>
