<?xml version="1.0" standalone="no"?>
<!DOCTYPE svg PUBLIC "-//W3C//DTD SVG 20010904//EN"
 "http://www.w3.org/TR/2001/REC-SVG-20010904/DTD/svg10.dtd">
<svg version="1.0" xmlns="http://www.w3.org/2000/svg"
 width="64.000000pt" height="64.000000pt" viewBox="0 0 64.000000 64.000000"
 preserveAspectRatio="xMidYMid meet">

<g transform="translate(0.000000,64.000000) scale(0.100000,-0.100000)"
fill="#000000" stroke="none">
<path d="M114 620 c-72 -36 -107 -139 -70 -208 18 -32 372 -385 403 -401 48
-24 115 -4 147 43 20 31 21 88 2 124 -8 15 -77 89 -153 165 -125 123 -143 137
-174 137 -40 -1 -65 -17 -78 -53 -16 -42 1 -71 96 -169 85 -86 117 -104 130
-72 4 11 -22 44 -86 108 -89 90 -107 121 -75 133 19 7 291 -259 300 -294 15
-56 -33 -93 -89 -69 -18 7 -109 92 -204 188 -140 142 -173 180 -178 210 -14
75 58 142 128 118 20 -6 85 -63 167 -145 74 -74 140 -135 147 -135 7 0 17 8
22 18 8 16 -12 40 -127 155 -172 171 -216 192 -308 147z"/>
</g>
</svg>
