<?xml version="1.0" standalone="no"?>
<!DOCTYPE svg PUBLIC "-//W3C//DTD SVG 20010904//EN"
 "http://www.w3.org/TR/2001/REC-SVG-20010904/DTD/svg10.dtd">
<svg version="1.0" xmlns="http://www.w3.org/2000/svg"
 width="64.000000pt" height="64.000000pt" viewBox="0 0 64.000000 64.000000"
 preserveAspectRatio="xMidYMid meet">

<g transform="translate(0.000000,64.000000) scale(0.100000,-0.100000)"
fill="#000000" stroke="none">
<path d="M25 595 l-25 -24 0 -251 0 -251 25 -24 24 -25 271 0 271 0 24 25 25
24 0 251 0 251 -25 24 -24 25 -271 0 -271 0 -24 -25z m436 -106 c28 -28 22
-76 -13 -102 -64 -48 -135 45 -81 106 22 23 68 22 94 -4z m-158 -209 c38 -50
75 -90 82 -90 7 0 27 11 43 25 17 14 33 25 36 25 10 0 96 -121 96 -136 0 -12
-41 -14 -234 -14 -136 0 -237 4 -241 9 -7 12 127 271 140 271 6 0 41 -41 78
-90z"/>
</g>
</svg>
