<?xml version="1.0" standalone="no"?>
<!DOCTYPE svg PUBLIC "-//W3C//DTD SVG 20010904//EN"
 "http://www.w3.org/TR/2001/REC-SVG-20010904/DTD/svg10.dtd">
<svg version="1.0" xmlns="http://www.w3.org/2000/svg"
 width="64.000000pt" height="64.000000pt" viewBox="0 0 64.000000 64.000000"
 preserveAspectRatio="xMidYMid meet">

<g transform="translate(0.000000,64.000000) scale(0.100000,-0.100000)"
fill="#000000" stroke="none">
<path d="M17 622 c-15 -16 -17 -52 -17 -304 0 -263 1 -286 18 -301 16 -15 45
-17 193 -17 213 0 214 0 214 92 0 61 -1 63 -25 63 -23 0 -25 -4 -28 -53 l-3
-53 -157 3 -157 3 0 265 0 265 157 3 157 3 3 -53 c3 -49 5 -53 28 -53 24 0 25
2 25 63 0 92 -1 92 -215 92 -159 0 -179 -2 -193 -18z"/>
<path d="M457 473 c-16 -15 -4 -36 39 -76 l46 -42 -188 -5 -189 -5 0 -25 0
-25 189 -5 188 -5 -47 -43 c-43 -39 -55 -71 -30 -78 6 -2 48 33 95 76 l85 80
-85 80 c-87 81 -92 85 -103 73z"/>
</g>
</svg>
