<?xml version="1.0" encoding="iso-8859-1"?>
<!-- Generator: Adobe Illustrator 19.0.0, SVG Export Plug-In . SVG Version: 6.00 Build 0)  -->
<svg version="1.1" id="Layer_1" xmlns="http://www.w3.org/2000/svg" xmlns:xlink="http://www.w3.org/1999/xlink" x="0px" y="0px"
	 viewBox="0 0 512 512" style="enable-background:new 0 0 512 512;" xml:space="preserve">
<g>
	<g>
		<path d="M422.957,211.478h-16.69v-61.217C406.266,67.403,338.864,0,256.006,0S105.745,67.403,105.745,150.261v61.217H89.044
			c-27.619,0-50.087,22.468-50.087,50.087v200.348c0,27.619,22.468,50.087,50.087,50.087h333.913
			c27.619,0,50.087-22.468,50.087-50.087V261.565C473.043,233.946,450.576,211.478,422.957,211.478z M272.696,375.357v53.165
			c0,9.22-7.475,16.696-16.696,16.696c-9.22,0-16.696-7.475-16.696-16.696v-53.165c-19.404-6.905-33.374-25.23-33.391-47.009
			c0.022-27.668,22.42-50.065,50.087-50.087c27.667,0.022,50.065,22.419,50.087,50.087
			C306.069,350.127,292.099,368.452,272.696,375.357z M339.484,211.478H172.527v-61.217c0-46.043,37.435-83.478,83.478-83.478
			s83.478,37.435,83.478,83.478V211.478z"/>
	</g>
</g>
<g>
</g>
<g>
</g>
<g>
</g>
<g>
</g>
<g>
</g>
<g>
</g>
<g>
</g>
<g>
</g>
<g>
</g>
<g>
</g>
<g>
</g>
<g>
</g>
<g>
</g>
<g>
</g>
<g>
</g>
</svg>
