<?xml version="1.0" standalone="no"?>
<!DOCTYPE svg PUBLIC "-//W3C//DTD SVG 20010904//EN"
 "http://www.w3.org/TR/2001/REC-SVG-20010904/DTD/svg10.dtd">
<svg version="1.0" xmlns="http://www.w3.org/2000/svg"
 width="234.000000pt" height="215.000000pt" viewBox="0 0 234.000000 215.000000"
 preserveAspectRatio="xMidYMid meet">
<metadata>
Created by potrace 1.16, written by Peter Selinger 2001-2019
</metadata>
<g transform="translate(0.000000,215.000000) scale(0.100000,-0.100000)"
fill="#BFC1C3" stroke="none">
<path d="M400 1830 c-11 -11 -20 -30 -20 -42 0 -45 141 -683 154 -696 11 -11
10 -20 -5 -50 -9 -20 -48 -183 -85 -360 -63 -300 -67 -326 -53 -350 31 -57 25
-60 806 323 400 196 735 363 745 372 21 19 24 62 5 86 -16 22 -1475 737 -1504
737 -13 0 -32 -9 -43 -20z m857 -445 c348 -170 629 -312 625 -316 -14 -13
-1425 -700 -1429 -696 -3 4 126 628 131 634 1 2 195 16 431 33 235 16 430 32
433 35 3 3 -6 5 -19 5 -40 0 -802 51 -825 55 -18 4 -27 36 -87 317 -37 172
-67 316 -67 321 0 4 39 -12 88 -36 48 -24 372 -182 719 -352z"/>
</g>
</svg>
