<?xml version="1.0" standalone="no"?>
<!DOCTYPE svg PUBLIC "-//W3C//DTD SVG 20010904//EN"
 "http://www.w3.org/TR/2001/REC-SVG-20010904/DTD/svg10.dtd">
<svg version="1.0" xmlns="http://www.w3.org/2000/svg"
 width="64.000000pt" height="64.000000pt" viewBox="0 0 64.000000 64.000000"
 preserveAspectRatio="xMidYMid meet">

<g transform="translate(0.000000,64.000000) scale(0.100000,-0.100000)"
fill="#000000" stroke="none">
<path d="M212 600 c-94 -57 -94 -183 0 -240 41 -25 82 -25 127 -2 47 23 72 61
78 113 11 108 -112 185 -205 129z"/>
<path d="M400 308 c-59 -30 -95 -97 -85 -158 9 -55 66 -116 119 -125 115 -22
214 90 175 199 -17 49 -72 93 -124 101 -31 5 -51 1 -85 -17z m122 -37 c4 -4
-28 -42 -72 -86 -69 -69 -80 -76 -87 -59 -22 58 5 125 60 150 30 13 83 10 99
-5z m54 -77 c14 -77 -53 -144 -130 -130 -20 4 -36 10 -36 14 0 9 143 152 152
152 4 0 10 -16 14 -36z"/>
<path d="M140 281 c-63 -20 -102 -39 -112 -55 -4 -6 -8 -39 -8 -73 0 -91 4
-93 166 -93 74 0 134 3 134 8 -1 4 -7 18 -15 32 -21 37 -19 119 5 158 11 18
20 35 20 37 0 12 -141 2 -190 -14z"/>
</g>
</svg>
